<svg xmlns="http://www.w3.org/2000/svg" viewBox="0 0 60.04 179.87"><defs><style>.cls-1{fill:#fff;}</style></defs><title>Asset 1</title><g id="Layer_2" data-name="Layer 2"><g id="Layer_1-2" data-name="Layer 1"><path class="cls-1" d="M58.62,79l1.42.76L57.13,74.1l1.49.93c-3.26-4.42-4.76-6.19-4.76-6.19l.45.13-2.44-2.31.46.14-.7-.82c-2-2.29-6-4.84-9-4.85-.87,0-2,0-3.37,0-.42-2.52-.86-5.16-.88-5.22s1,1.18,1,1.18-.41-5-1.34-7.16c-.08-.17.56.47.56.47l-1-3.34,1,.75-1.27-7.48.37.66a27.14,27.14,0,0,1,.8-9.21A2.74,2.74,0,0,0,38,29.91c-.82-1.08-2.15-2.95-2.23-3.9a4.77,4.77,0,0,1,.59-1.64c.76,2.48,1.44,5.41,3.47,6.36a16.43,16.43,0,0,1-1.67-6.63c-.05-.6,1.67,4.25,1.67,4.25,0-.28-.15-1.34-.33-2.63-.23-1.58-.52-3.52-.71-4.78-.1-.61-.17-1.06-.2-1.25a9.72,9.72,0,0,1-.06-3.12l2.25-3.83a6,6,0,0,0,.84-3.52,3.85,3.85,0,0,0-.16-1C41.05,7.15,42.62,1,42.7.14s-3,2.44-3,2.44V1.09L34.45,6.51a11.76,11.76,0,0,0-7.18-2.27c-7.81,0-7.77,3.88-7.77,3.88L18.17,6.91A.88.88,0,0,0,18,6.66L16.84,5.42l.58,1.13-.11,0-.66-.43.24.71h0L11.26,1.09V2.58S8.2-.72,8.27.14s1.65,7,1.27,8.11a4.33,4.33,0,0,0-.17,1,6.2,6.2,0,0,0,.84,3.52l1.38,2.35c-.07.46-.14.94-.18,1.45-.34,3.93,1.83,9.11-1.79,15.66,3-1.27,4.29-4.55,5.16-7.55A3.85,3.85,0,0,1,15.23,26c-.09.95-1.41,2.82-2.23,3.9a2.74,2.74,0,0,0-.55,1.92,27.14,27.14,0,0,1,.8,9.21l.37-.66-1.27,7.48,1-.75-1,3.34s.63-.64.56-.47c-.94,2.16-1.35,7.16-1.35,7.16s1.09-1.3,1-1.18-.83,4.86-1.3,7.71L7.71,66.8l.46-.14L5.73,69l.45-.13S4.68,70.61,1.42,75l1.49-.93L0,79.78,1.42,79A38.55,38.55,0,0,0,1,92.65V92.6l.62,8.53.3-2.72v0c.89,4.66,2.12,9.34,3.26,13.78l1.51,8.59.23-1.54c0,.25.11.5.17.75a52.46,52.46,0,0,1,1.19,7.7c.5,8.48,4.61,42.69,4.61,48.65h0v3.09a.45.45,0,0,0,.78.32l1-1a1.47,1.47,0,0,1,2.09,0l1,1a.46.46,0,0,0,.79-.32v-3.09h0c-.45-12.33-.66-30,1.39-41.06,1.82,11,1.62,27.74,1.19,39.64h0V178a.45.45,0,0,0,.78.32l1-1a1.47,1.47,0,0,1,2.09,0l1,1a.46.46,0,0,0,.78-.32v-2.8h0c0-4.87,2.74-28.58,4-41.73,2.44,10.81,2.23,29.84,1.76,42.86v3.09a.45.45,0,0,0,.78.32l1-1a1.48,1.48,0,0,1,2.1,0l1,1a.46.46,0,0,0,.79-.32v-3.09h0c0-3.07,1.1-13.66,2.22-24.36,1.09,10.3,2.1,20.26,2.1,23.23h.05V178a.45.45,0,0,0,.78.32l1-1a1.48,1.48,0,0,1,2.1,0l1,1a.46.46,0,0,0,.79-.32v-3.08h0c-.56-15.5-.72-39.22,3.44-47.72a19.29,19.29,0,0,0,1.27-5.43L53,124l2.24-13.08.08,4.42,3-17.53,1.11,3.36v-12h0A34.65,34.65,0,0,0,58.62,79ZM6,115.22c0,.1,0,.2.07.29.31,1.24.6,2.46.87,3.63Z"/></g></g></svg>