<svg xmlns="http://www.w3.org/2000/svg" xmlns:xlink="http://www.w3.org/1999/xlink" viewBox="0 0 211.29 379.51"><defs><style>.cls-1{fill:#a67c52;}.cls-2{fill:#c7b299;}.cls-3{fill:#1a1a1a;}.cls-4{fill:none;stroke:#000;stroke-miterlimit:10;stroke-width:1.78px;}.cls-5{fill:#603813;}.cls-6{fill:#42210b;}.cls-7{fill:#e6e6e6;}.cls-8{fill:#99714d;}.cls-9{fill:#754c24;}.cls-10,.cls-11{opacity:0.3;}.cls-10{fill:url(#linear-gradient);}.cls-11{fill:url(#linear-gradient-2);}.cls-12{fill:#b29f8b;}</style><linearGradient id="linear-gradient" x1="204.15" y1="-382.68" x2="204.15" y2="-390.94" gradientTransform="translate(355.26 -249.62) rotate(180)" gradientUnits="userSpaceOnUse"><stop offset="0" stop-color="#fff"/><stop offset="0.01" stop-color="#fff" stop-opacity="0.99"/><stop offset="0.13" stop-color="#fff" stop-opacity="0.76"/><stop offset="0.25" stop-color="#fff" stop-opacity="0.56"/><stop offset="0.37" stop-color="#fff" stop-opacity="0.39"/><stop offset="0.5" stop-color="#fff" stop-opacity="0.25"/><stop offset="0.62" stop-color="#fff" stop-opacity="0.14"/><stop offset="0.74" stop-color="#fff" stop-opacity="0.06"/><stop offset="0.87" stop-color="#fff" stop-opacity="0.02"/><stop offset="1" stop-color="#fff" stop-opacity="0"/></linearGradient><linearGradient id="linear-gradient-2" x1="321.76" y1="-382.68" x2="321.76" y2="-390.94" gradientTransform="matrix(1, 0, 0, -1, -261.58, -249.62)" xlink:href="#linear-gradient"/></defs><title>Asset 1</title><g id="Layer_2" data-name="Layer 2"><g id="Layer_1-2" data-name="Layer 1"><path class="cls-1" d="M184.64,343.41c.09.27,1.56,8.93,3.35,19.59a213.63,213.63,0,0,1-164.7,0c1.79-10.66,3.26-19.32,3.35-19.59.23-.73-6.43,7.23-6.43,7.23s2.53-30.65,8.27-43.93c.46-1-3.44,2.9-3.44,2.9l6.2-20.52L25,293.68l7.8-45.86-2.29,4.05c2.52-32.54-4.92-56.52-4.92-56.52A17,17,0,0,1,29,183.53c5-6.61,13.17-18.06,13.71-23.94.26-2.94-4.16-11-4.16-11l-5-5.8L36.45,82l69.19-9.66L174.83,82l2.92,60.83-5,5.8s-4.42,8-4.16,11c.54,5.88,8.67,17.33,13.71,23.94a17,17,0,0,1,3.38,11.82s-7.44,24-4.92,56.52l-2.29-4.05,7.8,45.86-6.19-4.59,6.19,20.52s-3.9-3.95-3.44-2.9c5.74,13.28,8.27,43.93,8.27,43.93S184.41,342.68,184.64,343.41Z"/><ellipse class="cls-2" cx="105.64" cy="191.58" rx="30.66" ry="65.66"/><path class="cls-3" d="M126.75,177.09l-4.18,2.63L111,187l-1.68,1.06a6.87,6.87,0,0,1-7.37,0L100.27,187l-11.56-7.27-4.17-2.63a1.51,1.51,0,0,1-.23-2.34l5.24-7.8a10.26,10.26,0,0,1,14.84.55,1.24,1.24,0,0,0,2.11.44l.4-.44a10.25,10.25,0,0,1,14.84-.55l5.24,7.8A1.51,1.51,0,0,1,126.75,177.09Z"/><path d="M122.57,179.72,111,187s0,0,0,0c-.78-1.41.52-6.33,3.74-8.29S121.61,178.35,122.57,179.72Z"/><path d="M100.29,187l0,0-11.56-7.27c1-1.38,4.73-2.93,7.84-1.05S101.06,185.55,100.29,187Z"/><line class="cls-4" x1="105.64" y1="189.13" x2="105.64" y2="182.4"/><path class="cls-3" d="M105,208.64l-2-20.07h5.43l-2,20.07A.7.7,0,0,1,105,208.64Z"/><path class="cls-1" d="M141.47,59.78l51.44-53.1v9.17s18.83-20.27,18.37-15-10.11,43-7.81,49.72a24,24,0,0,1,1,6,37.66,37.66,0,0,1-5.15,21.62l-23,39.05"/><path class="cls-5" d="M151.11,76.92l33.07-43.69L178.9,48.44l12.17-16.66S180,53.44,183.72,53.44c.73,0,5-9,5.93-9.34s-1.55,8.08-.62,7.6c2.34-1.18,6.19-8.68,8.62-9.62,2.64-1,1,31.7-26.1,66.22"/><path class="cls-1" d="M69.82,59.78,18.38,6.68v9.17S-.45-4.42,0,.89s10.1,43,7.81,49.72a24,24,0,0,0-1,6,37.58,37.58,0,0,0,5.15,21.62l23,39.05"/><path class="cls-5" d="M60.17,76.92,27.11,33.23l5.28,15.21L20.22,31.78s11.06,21.66,7.35,21.66c-.73,0-5-9-5.93-9.34s1.55,8.08.61,7.6c-2.34-1.18-6.18-8.68-8.62-9.62-2.64-1-1,31.7,26.11,66.22"/><path class="cls-6" d="M8.28,197.61c22.21-40.19,8.92-72,11-96.12C23,58.62,46.77,46.88,54.52,41a4.17,4.17,0,0,1,6.23,1.39l8.15,7.47S68.69,26,116.61,26c50.06,0,73.61,42.49,70.08,67.37-1.4,9.94-2.74,16.39-.81,27.5.19,1.12.64,3.91,1.22,7.65,1.2,7.75,3,19.6,4.36,29.32,1.13,7.93,2,14.44,2,16.13,0,0-10.51-29.73-10.22-26.07,2.16,27.1,10.22,40.68,10.22,40.68-22.88-10.77-17.75-62.65-39.33-62.65-28.07,0-58.63-30.77-58.63-30.77S97,108.3,112.32,119c0,0-23.95-7.24-39.69-26.07-9.88,1.87-22.6,23.29-25.76,33C40.44,145.55,35.81,185.77,8.28,197.61Z"/><path class="cls-3" d="M134.57,202c-2,9.89-6.06,24.52-13.36,33.4-.79,1-2.52,1.75-4.54,2.37-.41.13-.82.24-1.25.36a38.11,38.11,0,0,1-19.55,0,26.81,26.81,0,0,1-2.57-.81,8,8,0,0,1-3.23-1.92c-7.3-8.88-11.33-23.5-13.35-33.39h.2C81.7,222.41,90,227.6,96.45,228.17a16.2,16.2,0,0,0,8.84-1.87l.35-.2.35.19a17.25,17.25,0,0,0,8.84,1.9c6.64-.45,15.21-5.49,19.73-26.15Z"/><path class="cls-7" d="M105.29,226.3v4.14a1.18,1.18,0,0,1-1.14,1.21H97.6a1.18,1.18,0,0,1-1.15-1.21v-2.27A16.2,16.2,0,0,0,105.29,226.3Z"/><path class="cls-7" d="M114.83,228.19v2.25a1.18,1.18,0,0,1-1.15,1.21h-6.54a1.18,1.18,0,0,1-1.15-1.21v-4.15A17.25,17.25,0,0,0,114.83,228.19Z"/><path class="cls-7" d="M116.67,237.57v.24c-.41.13-.82.24-1.25.36a38.11,38.11,0,0,1-19.55,0,26.81,26.81,0,0,1-2.57-.81.93.93,0,0,1,.89-.74h2.3l.92.83.92-.83h1.55l.92.73.69-.73h2.79l.69.73.7-.73h2.78l.7.73.91-.73h1.55l.92.83.92-.83h2.31A.94.94,0,0,1,116.67,237.57Z"/><path class="cls-6" d="M79,127.37c.45-1.21,9.7-14.72,9.7-14.72l-7.18,4.58.69-4.58L79,116l-9.19-1.69,3.43,1.93-21.55-.89L45,132.11l8.48-6.19Z"/><path class="cls-6" d="M132.28,127.37c-.46-1.21-9.7-14.72-9.7-14.72l7.18,4.58-.69-4.58,3.21,3.38,9.19-1.69L138,116.27l21.55-.89,6.65,16.73-8.47-6.19Z"/><path class="cls-8" d="M36.45,244.63l12.38,40s-1.74-23.88,1-12.86,20,56.83,20,56.83l-2.94-21.21,2.94,8.06V299.76l21.7,48.34-2.81-33.92,7.74,18.66,6.48-21.63L106,342.59,114.83,315l1.84,8.48,7.92-15.69v3.81l13.92-7.21-3.75,14.66,3.28-2.82,3.43,13.18,4.51-36.1,4.11,8.84,14.1-27.44,2.69,8.89,9.5-41.12-8,50-5.52-7.26L149.25,310l-1.93-4.32-2.91,45.8-8.11-29.2-8.87,23L134.57,311l-9.48,6-3.83,8.3-4.59,18.51-1.84-15.26-9.54,28.83-4.42-23.32L98.07,346l-3.46-7.21v27.57L73.25,319.69v8.06l-2.13-4.67,3,26.06L51.65,287,51,304.42Z"/><path class="cls-9" d="M165.92,148.05c0-8.6-6.63-11.91-14.81-11.91s-14.81,3.31-14.81,11.91,6.63,15.57,14.81,15.57S165.92,156.65,165.92,148.05Z"/><path class="cls-3" d="M165.92,144c0-8.6-6.63-11.92-14.81-11.92S136.3,135.43,136.3,144s6.63,15.57,14.81,15.57S165.92,152.62,165.92,144Z"/><path class="cls-10" d="M164.19,141.31c-4.31-6.43-7.79-8.26-13.08-8.26s-8.77,1.83-13.07,8.26Z"/><path class="cls-9" d="M45.36,148.05c0-8.6,6.63-11.91,14.81-11.91S75,139.45,75,148.05s-6.64,15.57-14.82,15.57S45.36,156.65,45.36,148.05Z"/><path class="cls-3" d="M45.36,144c0-8.6,6.63-11.92,14.81-11.92S75,135.43,75,144,68.35,159.6,60.17,159.6,45.36,152.62,45.36,144Z"/><path class="cls-11" d="M47.1,141.31c4.3-6.43,7.78-8.26,13.07-8.26s8.78,1.83,13.08,8.26Z"/><polygon class="cls-9" points="149.05 163.62 149.97 166.72 152.49 164.04 153.87 165.17 155.78 162.83 159.55 160.84 159.55 163.78 162.93 157.44 153.87 160.68 147.44 160.92 140.32 157.44 136.87 152.31 139.17 159.59 139.25 157.22 143.07 162.45 142.77 160.68 147.21 165.03 149.05 163.62"/><polygon class="cls-9" points="62.24 163.62 61.32 166.72 58.8 164.04 57.42 165.17 55.51 162.83 51.73 160.84 51.73 163.78 48.36 157.44 57.42 160.68 63.85 160.92 70.97 157.44 74.42 152.31 72.11 159.59 72.04 157.22 68.21 162.45 68.52 160.68 64.08 165.03 62.24 163.62"/><path class="cls-12" d="M115.57,157.71H109c-.12-.29-.15-.31-.5-.24a1,1,0,0,1-.73-.12,6.78,6.78,0,0,0-1.82-.87c-.29-.06-.31-.17-.16-.46s0-.26-.11-.3a.84.84,0,0,0-.35,0,1.15,1.15,0,0,1-1-.32.56.56,0,0,0-.76-.06,4,4,0,0,0-.58.51.8.8,0,0,1-.63.29A10.56,10.56,0,0,1,101,156a.94.94,0,0,0-.74.14A10.49,10.49,0,0,0,99,157.2a7,7,0,0,1-3.67,1.93l-1.11.35a.41.41,0,0,1,0-.14l-.24-5.62-.12-3.36a.33.33,0,0,1,.09-.2,2.61,2.61,0,0,1,.24-.23.45.45,0,0,0,.14-.47c-.1-.4-.05-.46.29-.67a2.18,2.18,0,0,0,.35-.33,1.88,1.88,0,0,0-.35-.34c-.68-.36-.52-.39-.37-1s.35-1.19.52-1.78a.59.59,0,0,1,.06-.14,2.27,2.27,0,0,0,.26-1.69c0-.58,0-.81.52-1a5.42,5.42,0,0,0,1.35-1,1.39,1.39,0,0,0,.23-.31.43.43,0,0,1,.49-.23.9.9,0,0,1,.16,0c.45.19.67-.12.92-.43.12-.15.28-.28.41-.43a1.88,1.88,0,0,0,.38-.42,2.56,2.56,0,0,0,.4-1.6.81.81,0,0,1,.63-.7.2.2,0,0,1,.15.1c.07.16.11.33.17.49s.1.25.15.25.35,0,.4-.11a4.4,4.4,0,0,0,.72-2.08,1.56,1.56,0,0,1,.56-1.27,4.22,4.22,0,0,0,.49-.61A.64.64,0,0,1,104,134a.13.13,0,0,1,.09.07,1.28,1.28,0,0,0,.71.73,1.41,1.41,0,0,1,.67.75,4.54,4.54,0,0,0,.32.62c.14.25.22.27.44.09a3.73,3.73,0,0,0,.45-.44,1.37,1.37,0,0,1,1.74-.28l.12.08c.59.37.7.36,1.24-.09.13-.11.21-.12.32,0l.54.62a.46.46,0,0,0,.46.18c.15,0,.3,0,.45-.05a1.38,1.38,0,0,1,1.09.3.78.78,0,0,1,.21.38c.06.22,0,.45.12.66a1.4,1.4,0,0,0,.28.47c.19.21.41.39.62.58s.27.17.42,0a.62.62,0,0,1,.73,0c.23.11.48.18.7.29a.27.27,0,0,1,.12.2c0,1.29,0,2.57,0,3.86l-.09,8.11c0,1.32,0,2.64-.05,4,0,.82,0,1.63,0,2.44C115.59,157.57,115.58,157.62,115.57,157.71Z"/><polyline class="cls-6" points="60.75 42.38 52.6 33.23 56.67 41.2 51.45 37.81 52.96 42.38"/></g></g></svg>